<svg xmlns="http://www.w3.org/2000/svg" xmlns:xlink="http://www.w3.org/1999/xlink" width="500" zoomAndPan="magnify" viewBox="0 0 375 374.999991" height="500" preserveAspectRatio="xMidYMid meet" version="1.0"><defs><clipPath id="34e5b353bf"><path d="M 6.605469 56.804688 L 368.105469 56.804688 L 368.105469 318.554688 L 6.605469 318.554688 Z M 6.605469 56.804688 " clip-rule="nonzero"/></clipPath></defs><rect x="-37.5" width="450" fill="#ffffff" y="-37.499999" height="449.999989" fill-opacity="1"/><rect x="-37.5" width="450" fill="#ffffff" y="-37.499999" height="449.999989" fill-opacity="1"/><g clip-path="url(#34e5b353bf)"><path fill="#000000" d="M 68.441406 188.605469 C 67.140625 200.863281 64.632812 223.171875 62.964844 230.605469 C 61.589844 236.722656 54.265625 252.738281 52.644531 268.097656 C 51.71875 276.902344 52.582031 285.550781 58.917969 291.140625 C 65.117188 296.609375 68.972656 300.753906 71.085938 303.804688 C 73.167969 306.808594 73.824219 309.21875 73.816406 310.953125 L 73.660156 312.441406 L 73.167969 313.929688 L 72.355469 315.257812 L 71.332031 316.320312 C 69.945312 317.484375 67.71875 318.335938 64.78125 318.484375 C 57.949219 318.832031 45.449219 315.445312 38.023438 313.855469 C 36.390625 313.507812 34.171875 313.933594 31.777344 314.445312 C 26.953125 315.472656 21.625 317.160156 17.761719 317.679688 C 15.214844 318.019531 13.089844 317.851562 11.605469 317.296875 L 10.421875 316.738281 L 9.261719 315.871094 L 8.261719 314.699219 L 7.5625 313.316406 C 5.5625 307.902344 7.023438 302.324219 9.820312 297.636719 C 12.148438 293.722656 15.351562 290.5 17.292969 288.730469 C 17.578125 280.847656 18.195312 250.632812 12.210938 223.324219 C 4.910156 189.984375 14.195312 161.886719 18.65625 147.007812 C 22.800781 133.179688 34 124.03125 46.554688 118.207031 C 62.875 110.636719 81.324219 108.710938 86.984375 108.285156 C 107.667969 95.597656 125.144531 87.226562 143.476562 83.757812 C 144.929688 79.40625 146.96875 75.757812 149.363281 72.695312 C 160.597656 58.332031 180.285156 56.886719 187.394531 56.886719 C 191.769531 56.886719 201.039062 57.371094 210.0625 61.203125 C 218.789062 64.90625 227.371094 71.589844 231.359375 83.769531 C 249.675781 87.242188 267.140625 95.609375 287.800781 108.285156 C 293.464844 108.710938 311.910156 110.636719 328.234375 118.207031 C 340.789062 124.03125 351.988281 133.179688 356.132812 147.007812 C 360.589844 161.886719 369.878906 189.984375 362.574219 223.324219 C 356.59375 250.632812 357.207031 280.847656 357.496094 288.730469 C 359.4375 290.5 362.636719 293.722656 364.96875 297.636719 C 367.765625 302.324219 369.222656 307.902344 367.226562 313.316406 L 366.527344 314.699219 L 365.523438 315.871094 L 364.363281 316.738281 L 363.183594 317.296875 C 361.695312 317.851562 359.570312 318.019531 357.027344 317.679688 C 353.160156 317.160156 347.835938 315.472656 343.011719 314.445312 C 340.617188 313.933594 338.394531 313.507812 336.761719 313.855469 C 329.335938 315.445312 316.835938 318.832031 310.007812 318.484375 C 307.066406 318.335938 304.839844 317.484375 303.457031 316.320312 L 302.429688 315.257812 L 301.617188 313.929688 L 301.125 312.441406 L 300.96875 310.953125 C 300.964844 309.21875 301.621094 306.808594 303.703125 303.804688 C 305.816406 300.753906 309.667969 296.609375 315.871094 291.140625 C 322.207031 285.550781 323.070312 276.902344 322.140625 268.097656 C 320.523438 252.738281 313.195312 236.722656 311.824219 230.605469 C 310.152344 223.171875 307.648438 200.863281 306.347656 188.605469 C 296.355469 189 284.179688 187.683594 272.019531 181.917969 C 269.195312 187.539062 263.222656 196.453125 252.03125 201.882812 C 251.917969 201.9375 251.800781 201.996094 251.683594 202.050781 C 249.601562 203.855469 247.289062 205.664062 244.726562 207.429688 C 244.628906 208.320312 244.464844 209.375 244.222656 210.566406 C 242.863281 217.261719 239.117188 229.546875 233.277344 240.160156 C 229.945312 246.21875 225.910156 251.710938 221.320312 255.539062 C 219.90625 258.734375 218.023438 263.457031 216.996094 268.207031 C 217.085938 268.242188 217.171875 268.277344 217.257812 268.3125 C 220.738281 269.722656 222.402344 271.769531 223.195312 273.867188 C 224.015625 276.042969 223.882812 278.554688 222.894531 281.246094 L 221.726562 283.273438 L 220.636719 284.363281 C 220.296875 284.644531 219.917969 284.914062 219.5 285.167969 C 218.054688 286.050781 215.992188 286.769531 213.582031 287.242188 C 206.5 288.632812 195.917969 288.132812 195.074219 288.089844 C 195.054688 288.089844 195.039062 288.089844 195.019531 288.089844 C 194.886719 288.082031 194.757812 288.066406 194.625 288.046875 C 194.621094 288.046875 194.617188 288.046875 194.613281 288.046875 C 191.667969 287.625 189.085938 286.652344 187.066406 285.246094 C 185.050781 286.652344 182.46875 287.625 179.523438 288.046875 C 179.519531 288.046875 179.515625 288.046875 179.511719 288.046875 C 179.378906 288.066406 179.25 288.082031 179.117188 288.089844 C 179.097656 288.089844 179.082031 288.089844 179.0625 288.089844 C 178.214844 288.132812 167.636719 288.632812 160.550781 287.242188 C 158.144531 286.769531 156.082031 286.050781 154.632812 285.167969 C 154.21875 284.914062 153.839844 284.644531 153.5 284.363281 L 152.410156 283.273438 L 151.242188 281.246094 C 150.25 278.554688 150.121094 276.042969 150.941406 273.867188 C 151.730469 271.769531 153.398438 269.722656 156.878906 268.3125 C 156.964844 268.277344 157.050781 268.242188 157.140625 268.207031 C 156.34375 264.53125 155.042969 260.882812 153.847656 257.949219 C 153.066406 257.265625 152.296875 256.519531 151.542969 255.707031 C 143.410156 246.972656 136.378906 230.382812 132.5625 218.691406 C 131 213.898438 129.972656 209.894531 129.554688 207.527344 C 124.429688 204.015625 120.292969 200.316406 117.011719 196.851562 C 109.976562 191.757812 105.5625 185.761719 103.140625 181.742188 C 90.855469 187.65625 78.535156 189.003906 68.441406 188.605469 Z M 88.722656 117.535156 C 85.421875 117.730469 66.785156 119.121094 50.472656 126.691406 C 40.3125 131.402344 30.941406 138.503906 27.589844 149.695312 C 23.402344 163.664062 14.46875 190.019531 21.320312 221.320312 C 28.53125 254.230469 26.519531 291.207031 26.519531 291.207031 C 26.445312 292.558594 25.792969 293.8125 24.726562 294.640625 C 24.726562 294.640625 20.507812 297.925781 17.824219 302.429688 C 16.738281 304.25 15.8125 306.300781 15.953125 308.394531 C 16.847656 308.308594 18.074219 308.160156 19.050781 307.949219 C 22.8125 307.121094 27.292969 305.757812 31.277344 305.011719 C 34.601562 304.386719 37.652344 304.21875 39.972656 304.714844 C 45.101562 305.8125 52.789062 307.890625 59.054688 308.78125 C 60.648438 309.003906 62.132812 309.15625 63.429688 309.164062 C 63.320312 308.996094 63.203125 308.824219 63.085938 308.664062 C 61.160156 306.050781 57.828125 302.632812 52.753906 298.15625 C 44.152344 290.570312 42.109375 279.070312 43.371094 267.113281 C 45.035156 251.332031 52.453125 234.839844 53.863281 228.554688 C 55.484375 221.332031 57.886719 199.734375 59.15625 187.722656 C 50.714844 186.457031 45.328125 184.371094 45.328125 184.371094 C 42.925781 183.441406 41.726562 180.734375 42.65625 178.328125 C 43.582031 175.921875 46.285156 174.722656 48.6875 175.652344 C 48.6875 175.652344 54.886719 178.046875 64.191406 179 C 64.375 178.996094 64.5625 179.003906 64.75 179.023438 C 64.910156 179.039062 65.066406 179.0625 65.222656 179.097656 C 75.539062 180.007812 89.367188 179.058594 102.78125 171.378906 C 103.949219 170.710938 105.351562 170.578125 106.621094 171.019531 C 107.894531 171.460938 108.914062 172.433594 109.417969 173.683594 C 109.417969 173.683594 113.074219 182.574219 122.664062 189.414062 C 122.746094 189.472656 122.832031 189.53125 122.914062 189.589844 C 124.898438 190.984375 127.132812 192.289062 129.636719 193.410156 C 139.953125 198.023438 154.679688 199.386719 175.121094 191.863281 C 177.535156 190.972656 180.21875 192.21875 181.105469 194.636719 C 181.992188 197.058594 180.75 199.746094 178.335938 200.636719 C 166.191406 205.109375 155.796875 206.734375 146.9375 206.53125 C 157.179688 211.042969 170.253906 214.207031 186.742188 214.207031 C 186.867188 214.207031 186.992188 214.210938 187.113281 214.222656 C 187.230469 214.210938 187.347656 214.207031 187.464844 214.207031 L 187.484375 214.207031 C 204.011719 214.195312 217.105469 211.003906 227.347656 206.464844 C 219.789062 206.089844 211.0625 204.339844 201.003906 200.636719 C 198.585938 199.746094 197.347656 197.058594 198.234375 194.636719 C 199.121094 192.21875 201.804688 190.972656 204.21875 191.863281 C 223.945312 199.125 237.683594 198.128906 247.117188 193.867188 C 247.167969 193.84375 247.21875 193.820312 247.269531 193.796875 C 247.503906 193.691406 247.738281 193.582031 247.964844 193.46875 C 261.367188 186.964844 265.21875 174.121094 265.21875 174.121094 C 265.621094 172.746094 266.625 171.636719 267.949219 171.101562 C 269.273438 170.566406 270.765625 170.667969 272.007812 171.378906 C 285.417969 179.058594 299.246094 180.007812 309.566406 179.097656 C 309.71875 179.0625 309.878906 179.039062 310.039062 179.023438 C 310.226562 179.003906 310.410156 178.996094 310.59375 179 C 319.902344 178.046875 326.101562 175.652344 326.101562 175.652344 C 328.503906 174.722656 331.203125 175.921875 332.132812 178.328125 C 333.058594 180.734375 331.863281 183.441406 329.460938 184.371094 C 329.460938 184.371094 324.070312 186.457031 315.632812 187.722656 C 316.902344 199.734375 319.300781 221.332031 320.921875 228.554688 C 322.335938 234.839844 329.753906 251.332031 331.417969 267.113281 C 332.675781 279.070312 330.636719 290.570312 322.03125 298.15625 C 316.957031 302.632812 313.628906 306.050781 311.699219 308.664062 C 311.582031 308.824219 311.464844 308.996094 311.355469 309.164062 C 312.652344 309.15625 314.140625 309.003906 315.730469 308.78125 C 321.996094 307.890625 329.6875 305.8125 334.816406 304.714844 C 337.136719 304.21875 340.1875 304.386719 343.511719 305.011719 C 347.492188 305.757812 351.976562 307.121094 355.738281 307.949219 C 356.710938 308.160156 357.9375 308.308594 358.835938 308.394531 C 358.976562 306.300781 358.046875 304.25 356.960938 302.429688 C 354.277344 297.925781 350.058594 294.640625 350.058594 294.640625 C 348.996094 293.8125 348.339844 292.558594 348.265625 291.207031 C 348.265625 291.207031 346.257812 254.230469 353.464844 221.320312 C 360.320312 190.019531 351.382812 163.664062 347.199219 149.695312 C 343.84375 138.503906 334.476562 131.402344 324.316406 126.691406 C 308 119.121094 289.363281 117.730469 286.0625 117.535156 C 286.058594 117.535156 286.054688 117.535156 286.054688 117.535156 C 285.789062 117.519531 285.609375 117.507812 285.609375 117.507812 C 284.238281 117.453125 283.023438 116.804688 282.203125 115.8125 C 264.40625 104.9375 249.144531 97.375 233.398438 93.746094 C 233.582031 95.601562 233.675781 97.550781 233.675781 99.597656 C 233.675781 112.25 233.148438 121.027344 232.464844 127.101562 C 232.453125 127.277344 232.433594 127.453125 232.402344 127.625 C 231.898438 131.9375 231.3125 134.832031 230.792969 136.761719 C 230.132812 139.234375 229.425781 140.695312 228.878906 141.542969 C 227.574219 144.78125 221.824219 158.710938 215.554688 168.292969 C 211.84375 173.96875 207.652344 178.046875 204.1875 179.089844 C 194.679688 181.945312 180.09375 181.941406 170.597656 179.089844 C 167.132812 178.046875 162.945312 173.96875 159.230469 168.292969 C 152.964844 158.710938 147.210938 144.78125 145.910156 141.542969 C 145.359375 140.695312 144.65625 139.234375 143.992188 136.761719 C 143.472656 134.832031 142.890625 131.9375 142.382812 127.625 C 142.355469 127.453125 142.335938 127.277344 142.324219 127.101562 C 141.636719 121.027344 141.109375 112.25 141.109375 99.597656 C 141.109375 97.550781 141.207031 95.601562 141.394531 93.746094 C 125.148438 97.488281 109.421875 105.417969 90.894531 116.847656 C 90.292969 117.21875 89.640625 117.4375 88.984375 117.511719 L 88.984375 117.515625 L 89.179688 117.507812 C 89.179688 117.507812 89 117.519531 88.734375 117.535156 C 88.730469 117.535156 88.726562 117.535156 88.722656 117.535156 Z M 224.203125 109.1875 C 224.296875 106.265625 224.351562 103.078125 224.351562 99.597656 C 224.351562 82.109375 215.632812 73.71875 206.421875 69.808594 C 198.851562 66.597656 191.0625 66.234375 187.394531 66.234375 C 181.691406 66.234375 165.714844 66.941406 156.703125 78.460938 C 152.890625 83.332031 150.4375 90.152344 150.4375 99.597656 C 150.4375 103.089844 150.484375 106.28125 150.566406 109.195312 C 150.773438 109.089844 150.988281 108.996094 151.207031 108.910156 C 153.226562 108.109375 155.777344 107.96875 158.976562 109.570312 C 162.421875 111.292969 164.386719 114.695312 166.035156 118.945312 C 167.167969 121.875 168.1875 125.367188 171.144531 127.996094 C 174.113281 130.636719 178.957031 132.199219 187.285156 132.015625 C 187.285156 132.015625 187.289062 132.015625 187.289062 132.015625 C 187.359375 132.015625 187.429688 132.015625 187.496094 132.015625 C 187.5 132.015625 187.5 132.015625 187.503906 132.015625 C 195.832031 132.199219 200.675781 130.636719 203.644531 127.996094 C 206.597656 125.367188 207.617188 121.875 208.753906 118.945312 C 210.402344 114.695312 212.363281 111.292969 215.808594 109.570312 C 219.007812 107.96875 221.5625 108.109375 223.582031 108.910156 C 223.792969 108.992188 224 109.085938 224.203125 109.1875 Z M 214.890625 248.75 C 219.484375 245.191406 223.28125 239.367188 226.386719 233.226562 C 229.8125 226.457031 232.347656 219.242188 233.875 213.738281 C 224.257812 218.414062 212.191406 222.070312 197.207031 223.195312 C 197.285156 223.375 197.367188 223.558594 197.441406 223.742188 C 198.960938 227.421875 199.429688 231.457031 198.960938 234.484375 C 198.425781 237.921875 193.105469 256.074219 191.710938 268.71875 C 191.707031 268.777344 191.703125 268.832031 191.695312 268.886719 C 191.367188 271.921875 191.246094 274.570312 191.632812 276.4375 C 191.671875 276.628906 191.71875 276.804688 191.773438 276.964844 C 191.96875 277.492188 192.523438 277.753906 193.101562 278.023438 C 193.878906 278.378906 194.78125 278.617188 195.75 278.765625 C 196.964844 278.828125 203.433594 279.105469 209.027344 278.480469 C 210.511719 278.316406 211.933594 278.085938 213.140625 277.753906 C 213.527344 277.648438 214.015625 277.453125 214.335938 277.320312 L 214.34375 277.277344 C 214.117188 277.152344 213.789062 276.984375 213.496094 276.875 C 212.816406 276.625 212.003906 276.417969 211.050781 276.242188 C 210.957031 276.226562 210.863281 276.210938 210.769531 276.191406 C 210.171875 276.089844 209.523438 275.996094 208.816406 275.917969 C 206.527344 275.65625 203.71875 275.523438 200.296875 275.53125 C 197.722656 275.539062 195.628906 273.449219 195.621094 270.871094 C 195.617188 268.289062 197.699219 266.191406 200.273438 266.183594 C 203.152344 266.179688 205.664062 266.273438 207.847656 266.449219 C 208.660156 262.679688 209.910156 258.933594 211.136719 255.757812 C 210.300781 253.675781 211.066406 251.230469 213.042969 250.027344 C 213.546875 249.71875 214.042969 249.382812 214.53125 249.019531 C 214.644531 248.925781 214.765625 248.832031 214.890625 248.75 Z M 178.386719 278.765625 C 179.355469 278.617188 180.257812 278.378906 181.03125 278.023438 C 181.558594 277.78125 182.0625 277.542969 182.296875 277.109375 C 181.988281 274.742188 182.03125 271.710938 182.375 268.3125 C 180.917969 255.683594 175.703125 237.882812 175.175781 234.484375 C 174.707031 231.457031 175.171875 227.421875 176.695312 223.742188 C 176.769531 223.558594 176.847656 223.375 176.929688 223.195312 C 162.246094 222.089844 150.367188 218.558594 140.84375 214.019531 C 143.753906 223.414062 149.246094 237.421875 155.898438 246.351562 C 157.402344 248.367188 158.949219 250.109375 160.554688 251.402344 C 160.605469 251.441406 160.652344 251.480469 160.703125 251.519531 C 160.890625 251.671875 161.085938 251.8125 161.277344 251.949219 C 162.5625 252.863281 163.839844 253.488281 165.179688 253.425781 C 167.75 253.308594 169.933594 255.304688 170.054688 257.878906 C 170.171875 260.457031 168.179688 262.644531 165.609375 262.765625 C 165.53125 262.769531 165.453125 262.769531 165.375 262.773438 C 165.71875 263.984375 166.027344 265.214844 166.292969 266.449219 C 168.476562 266.273438 170.984375 266.179688 173.863281 266.183594 C 176.433594 266.191406 178.519531 268.289062 178.515625 270.871094 C 178.507812 273.449219 176.414062 275.539062 173.839844 275.53125 C 169.308594 275.523438 165.875 275.746094 163.3125 276.203125 C 163.261719 276.210938 163.210938 276.222656 163.160156 276.230469 C 162.9375 276.269531 162.71875 276.3125 162.507812 276.359375 C 161.433594 276.585938 160.3125 277.070312 159.796875 277.308594 L 159.800781 277.320312 C 160.121094 277.453125 160.609375 277.648438 160.996094 277.753906 C 162.203125 278.085938 163.625 278.316406 165.109375 278.480469 C 170.703125 279.105469 177.171875 278.828125 178.386719 278.765625 Z M 285.804688 117.511719 C 285.804688 117.511719 285.804688 117.511719 285.804688 117.515625 Z M 151.808594 127.617188 C 152.515625 133.457031 153.230469 135.800781 153.214844 135.789062 C 153.132812 135.707031 153.085938 135.667969 153.078125 135.660156 C 153.078125 135.660156 160.351562 152.953125 167.03125 163.167969 C 168.339844 165.167969 169.660156 166.953125 170.972656 168.320312 C 171.796875 169.179688 172.511719 169.90625 173.277344 170.132812 C 181.601562 172.636719 193.1875 172.636719 201.511719 170.132812 C 202.273438 169.90625 202.992188 169.179688 203.8125 168.320312 C 205.125 166.953125 206.449219 165.167969 207.753906 163.167969 C 214.375 153.046875 221.101562 136.339844 221.101562 136.339844 C 221.101562 136.339844 221.992188 133.6875 222.84375 127.261719 C 222.789062 127.117188 222.734375 126.964844 222.683594 126.8125 C 222.175781 125.273438 221.765625 123.09375 221.214844 120.957031 C 220.96875 119.996094 220.378906 118.605469 220.0625 117.890625 L 219.976562 117.933594 C 218.960938 118.441406 218.597656 119.5625 218.097656 120.726562 C 217.453125 122.222656 216.875 123.890625 216.164062 125.589844 C 214.503906 129.566406 212.175781 133.605469 207.6875 136.660156 C 203.503906 139.507812 197.277344 141.570312 187.394531 141.363281 C 177.507812 141.570312 171.285156 139.507812 167.097656 136.660156 C 162.609375 133.605469 160.28125 129.566406 158.621094 125.589844 C 157.910156 123.890625 157.335938 122.222656 156.691406 120.726562 C 156.1875 119.5625 155.824219 118.441406 154.8125 117.933594 C 154.773438 117.914062 154.730469 117.894531 154.683594 117.875 C 154.519531 118.175781 154.316406 118.578125 154.199219 118.882812 C 153.957031 119.539062 153.753906 120.246094 153.570312 120.957031 C 153.019531 123.09375 152.609375 125.273438 152.101562 126.8125 C 152.007812 127.09375 151.910156 127.363281 151.808594 127.617188 Z M 187.066406 244.191406 C 188.386719 238.804688 189.511719 234.542969 189.746094 233.046875 C 189.996094 231.429688 189.636719 229.285156 188.824219 227.320312 C 188.382812 226.253906 187.816406 225.214844 187.066406 224.386719 C 186.320312 225.214844 185.753906 226.253906 185.3125 227.320312 C 184.5 229.285156 184.140625 231.429688 184.390625 233.046875 C 184.625 234.542969 185.75 238.804688 187.066406 244.191406 Z M 187.066406 244.191406 " fill-opacity="1" fill-rule="evenodd"/></g></svg>